<?xml version="1.0" encoding="utf-8"?>
<!-- Generator: Adobe Illustrator 19.0.0, SVG Export Plug-In . SVG Version: 6.00 Build 0)  -->
<svg version="1.1" id="Layer_1" xmlns="http://www.w3.org/2000/svg" xmlns:xlink="http://www.w3.org/1999/xlink" x="0px" y="0px"
	 viewBox="0 0 120 120" style="enable-background:new 0 0 120 120;" xml:space="preserve">
<g id="XMLID_6_">
	<g id="XMLID_1_">
		<g id="XMLID_36_">
			<path id="XMLID_40_" d="M25,36.9c0,6.8,0.8,14.1-0.3,20.8c1-0.3,1.9-0.5,2.9-0.8c0.1-5.2,0.3-11,2-16c0.4-1,2.4-5.9,3.7-5.7
				c1.1,0.2,1.4,3.1,1.6,3.8c0.4,2.6,0.3,5.2,0.2,7.8c-0.1,5.6,0.2,11.8-0.8,17.3c1-0.3,1.9-0.5,2.9-0.8c-1.6-3.5-1.1-8.4-0.7-12.1
				c0.2-2,1.1-9.1,3.2-10.5c1.8-1.2,1.9,1.1,2.1,2.6c0.4,2.4,0.5,4.9,0.6,7.4c0.2,4.9,0.2,9.9,0.2,14.8c0,0.4,2.9,0,2.9-0.8
				c0-7.3-1-16.3,2.1-23.2c0.5-1.2,2.7-6.2,4.1-6.2c2.4,0,2.3,6.5,2.2,7.8c-0.3,9.4-8.6,31.5,4.4,36c0.8,0.3,2.9-0.9,2.7-1
				c-8.7-3-7.1-15-6.2-22.2c0.5-3.9,5.3-20.4-1.2-21.9c-3.7-0.9-6.7,3.6-8.2,6.3c-4,7.5-3.1,17-3,25.1c1-0.3,1.9-0.5,2.9-0.8
				c0-7.4,0.8-15.9-1-23.1c-0.7-2.7-1.8-4.1-4.7-3c-7.2,2.7-8.1,20-5.6,25.5c0.3,0.6,2.8-0.2,2.9-0.8c1.1-6.5,0.9-13.7,0.8-20.3
				c0-2.4,0.4-8.1-2.6-9.1c-2.5-0.8-5.5,1.9-6.8,3.6c-3.9,5.3-3.9,13.8-4,20c0,0.4,2.8-0.1,2.9-0.8c1.1-6.7,0.4-14,0.3-20.8
				C27.9,35.8,25,36.1,25,36.9L25,36.9z"/>
		</g>
	</g>
	<g id="XMLID_2_">
		<g id="XMLID_31_">
			<path id="XMLID_35_" d="M73.7,70.5c-2.4-2.2-4.9-3.9-6.7-6.7c-0.9-1.5-2.8-4.2-2.8-6.1c0-0.7,0.4-2.4,1.2-2.5
				c1.1-0.1,1.8,1.6,1.7,2.5c-0.4,3-4.4,3.5-6.6,4.9c-1.8,1.1-3.1,2.7-3.3,4.9c-0.4,4.6,3,6.5,7.1,6.1c1.8-0.2,3.8-0.7,4.9-2.2
				c1.5-1.9,0.9-4.6,1.6-6.9c0.3-1.1-2.6-0.7-2.9,0.3c-0.4,1.4-0.2,2.9-0.6,4.2c-0.7,2.3-4,3.7-6,2c-3.2-2.7-0.4-6.9,2.5-8.2
				c2.6-1.2,9.3-4.3,5.4-8.2c-2.3-2.3-7.7-1.3-8,2.1c-0.3,2.5,1.3,5.2,2.5,7.3c2,3.3,4.6,5.1,7.3,7.7C71.8,72.4,74.5,71.3,73.7,70.5
				L73.7,70.5z"/>
		</g>
	</g>
	<g id="XMLID_5_">
		<g id="XMLID_3_">
			<g id="XMLID_24_">
				<path id="XMLID_28_" d="M80.9,86.8c0-5.1-1.5-10.1-2-15.2c-0.6-5.6-1-11.5-0.6-17.1c0.2-4,1.1-9.3,4.7-11.7
					c4.7-3.2,9.2,0.6,10.7,4.8c0.3,0.8,0.5,1.7,0.6,2.6c0.2,0.9,0.1,1.9-0.2,2.8c-0.1,1.6-1.2,1.8-3.3,0.6c-0.6-1.2-3.5-0.4-2.9,0.8
					c1,2.1,1.8,3.4,4.3,3.1c2.5-0.3,4.2-2.1,4.8-4.5c1.7-6.5-4-13.8-10.8-13.2c-7,0.6-10.1,7.2-10.8,13.4c-0.6,5-0.1,10.3,0.2,15.4
					c0.4,6.3,2.3,12.4,2.3,18.7C77.9,88.6,80.9,88.1,80.9,86.8L80.9,86.8z"/>
			</g>
		</g>
		<g id="XMLID_4_">
			<g id="XMLID_18_">
				<path id="XMLID_22_" d="M73.7,64.2c3.9,0,7.7,0,11.6,0c1.1,0,3.1-1.6,1.1-1.6c-3.9,0-7.7,0-11.6,0
					C73.8,62.6,71.8,64.2,73.7,64.2L73.7,64.2z"/>
			</g>
		</g>
	</g>
</g>
</svg>
